<?xml version="1.0" standalone="no"?>
<!DOCTYPE svg PUBLIC "-//W3C//DTD SVG 20010904//EN"
 "http://www.w3.org/TR/2001/REC-SVG-20010904/DTD/svg10.dtd">
<svg version="1.0" xmlns="http://www.w3.org/2000/svg"
 width="1280.000000pt" height="1280.000000pt" viewBox="0 0 1280.000000 1280.000000"
 preserveAspectRatio="xMidYMid meet">

<g transform="translate(0.000000,1280.000000) scale(0.100000,-0.100000)"
fill="#000000" stroke="none">
<path d="M5757 8773 c-4 -3 -7 -332 -7 -730 l0 -723 -32 -14 c-18 -7 -80 -36
-138 -64 -58 -28 -314 -150 -569 -271 -256 -122 -468 -227 -473 -234 -4 -6 -8
-234 -8 -504 l0 -493 -329 0 c-286 0 -332 -2 -345 -16 -19 -19 -20 -36 -4 -52
17 -17 729 -17 746 0 9 9 12 137 12 516 l0 503 128 61 c70 33 240 113 377 178
138 65 332 156 431 204 100 47 187 86 193 86 8 0 11 -167 11 -615 l0 -614 22
-12 c17 -9 148 -11 545 -6 l523 7 0 -154 c0 -149 1 -155 22 -170 20 -14 135
-16 1039 -16 967 0 1018 1 1039 18 27 22 20 57 -13 66 -12 3 -469 6 -1015 6
l-993 0 3 123 3 122 509 2 c365 2 512 6 522 14 12 9 14 93 14 479 0 432 -1
468 -17 482 -10 8 -121 79 -248 158 -126 78 -252 157 -280 175 -27 18 -81 51
-120 74 -38 24 -149 92 -245 152 -159 99 -176 107 -195 95 -20 -13 -20 -21
-23 -780 l-2 -766 -505 0 -505 0 2 606 3 606 300 143 c165 78 404 192 530 252
l230 109 0 500 0 499 -566 3 c-311 1 -569 -1 -572 -5z m1063 -508 l0 -436 -92
-43 c-144 -68 -608 -287 -760 -359 l-138 -66 0 670 0 669 495 0 495 0 0 -435z
m309 -891 c102 -64 209 -131 236 -149 28 -17 157 -98 288 -179 l237 -148 0
-419 0 -419 -485 0 -485 0 0 715 c0 532 3 715 11 715 7 0 96 -52 198 -116z"/>
</g>
</svg>
